<?xml version="1.0" standalone="no"?>
<!DOCTYPE svg PUBLIC "-//W3C//DTD SVG 20010904//EN"
 "http://www.w3.org/TR/2001/REC-SVG-20010904/DTD/svg10.dtd">
<svg version="1.0" xmlns="http://www.w3.org/2000/svg"
 width="460.000000pt" height="460.000000pt" viewBox="0 0 460.000000 460.000000"
 preserveAspectRatio="xMidYMid meet">
<metadata>
Created by potrace 1.14, written by Peter Selinger 2001-2017
</metadata>
<g transform="translate(0.000000,460.000000) scale(0.100000,-0.100000)"
fill="#000000" stroke="none">
<path d="M0 2300 l0 -2300 449 0 448 0 36 188 c20 103 38 212 42 242 3 30 24
150 46 265 22 116 46 244 54 285 8 41 17 100 20 130 4 30 26 159 51 285 24
127 50 280 59 340 19 142 24 165 37 165 5 0 40 24 78 53 37 28 81 60 96 69 16
10 76 51 134 92 58 42 125 89 150 106 25 16 77 52 115 80 39 28 76 55 83 59
18 11 -1 48 -53 111 -20 24 -43 56 -51 72 -8 15 -42 64 -74 108 -33 43 -60 82
-60 85 0 4 -21 33 -46 65 -25 32 -53 72 -62 88 -10 17 -38 58 -64 93 -55 72
-56 78 -28 215 50 251 90 475 96 534 4 36 10 71 13 77 8 15 63 -57 191 -247
36 -54 55 -81 96 -136 18 -23 38 -52 44 -65 7 -13 35 -52 61 -85 27 -34 49
-67 49 -73 0 -5 13 -25 28 -43 25 -29 83 -110 189 -266 18 -26 41 -58 52 -72
10 -14 49 -71 87 -125 37 -55 71 -102 76 -103 5 -2 20 -26 33 -52 14 -27 30
-52 36 -55 6 -4 30 -37 54 -74 24 -36 62 -91 83 -121 l40 -54 -61 -46 c-33
-25 -79 -55 -101 -68 -23 -13 -42 -27 -44 -32 -2 -5 -27 -23 -55 -41 -29 -18
-87 -59 -129 -91 -43 -31 -90 -64 -106 -72 -15 -8 -50 -33 -77 -56 -28 -22
-60 -43 -72 -46 -13 -4 -23 -9 -23 -13 0 -7 -43 -39 -165 -122 -118 -81 -111
-69 -144 -240 -17 -85 -37 -201 -45 -260 -8 -58 -34 -202 -56 -320 -23 -117
-48 -259 -55 -314 -8 -55 -25 -156 -39 -225 -13 -69 -29 -154 -36 -190 -6 -36
-13 -73 -16 -82 -5 -17 74 -18 1565 -18 l1571 0 0 2300 0 2300 -447 -2 -447
-3 -33 -165 c-17 -91 -37 -201 -43 -245 -6 -44 -35 -213 -65 -375 -30 -162
-63 -353 -75 -425 -11 -71 -34 -197 -50 -280 -16 -82 -37 -204 -46 -270 -11
-85 -20 -123 -31 -130 -9 -5 -46 -34 -84 -62 -37 -29 -72 -53 -78 -53 -6 0
-25 -13 -43 -28 -52 -45 -218 -154 -218 -143 0 6 -13 25 -28 43 -24 28 -83
111 -199 281 -12 17 -36 51 -54 74 -17 23 -28 46 -25 51 3 5 38 31 78 57 40
27 91 64 113 82 39 33 41 38 62 151 13 64 32 178 43 252 11 74 40 239 64 365
24 127 47 255 51 285 3 30 24 150 46 265 22 116 43 225 46 243 l6 32 -1572 0
-1571 0 0 -2300z m2897 -367 c16 -21 42 -58 57 -83 16 -25 38 -55 49 -68 12
-12 33 -42 47 -66 14 -25 45 -70 69 -102 36 -47 44 -65 43 -94 -2 -19 -27
-163 -58 -320 -30 -157 -57 -315 -61 -352 -3 -38 -9 -68 -12 -68 -7 1 -56 66
-94 128 -16 25 -43 64 -61 86 -18 23 -57 77 -86 121 -29 44 -57 82 -62 83 -5
2 -15 18 -22 36 -7 18 -27 48 -43 67 -17 19 -51 66 -77 104 -26 39 -73 108
-106 155 -59 85 -70 110 -48 110 6 0 22 10 35 22 24 22 226 166 277 196 15 9
46 32 68 50 22 17 44 32 48 32 5 0 21 -17 37 -37z"/>
</g>
</svg>
